<svg xmlns="http://www.w3.org/2000/svg" width="24" height="24" viewBox="0 0 24 24"><g fill="none" fill-rule="evenodd"><path fill="currentColor" class="st0" d="M11.7,12.9c0.1,0,0.1,0,0.2,0c0.9,0.2,1.8,0.4,2.7,0.7c0,0,0.1,0,0.1,0c0.9,0.3,1.8,0.8,2.5,1.4 c0,0,0.1,0.1,0.1,0.1c0.3,0.3,0.6,0.7,0.8,1.1c0,0,0,0.1,0,0.1c0.3,0.6,0.4,1.2,0.5,1.9c0,0.2,0.1,0.4,0.1,0.7c0,0.1,0,0.1,0,0.1 c0.1,0.7,0.2,1.4,0.4,2c0.1,0.2,0.1,0.4,0.1,0.7c-0.1,0.1-0.1,0.1-0.2,0.2c-0.2,0-0.4,0-0.7,0c0,0-0.1,0-0.1,0c-0.1,0-0.2,0-0.3,0 c-0.1,0-0.1,0-0.1,0c-1.9-0.3-3.8-0.6-5.3-2c-0.1,0-0.1-0.1-0.2-0.1c-1.7-1.6-2-4-2.2-6.2c0,0,0-0.1,0-0.1c0,0,0-0.1,0-0.1 c0,0,0-0.1,0-0.1c0-0.1,0-0.2,0.1-0.3C10.7,12.6,11.3,12.8,11.7,12.9z"/>
<path fill="currentColor" class="st0" d="M8.9,9.1c0.1,0,0.2,0,0.3,0c0.3,0,0.6,0,1,0c0,0,0.1,0,0.1,0c0.4,0,0.7,0.2,1,0.5c0.1,0.2,0.1,0.4,0,0.7 C11,11,10.2,11.6,9.6,12c-0.1,0.1-0.1,0.1-0.2,0.2c-1.9,1.5-4.1,2.9-6.6,2.8c-0.4,0-0.7-0.2-0.9-0.4c0,0-0.1-0.1-0.1-0.1 c-0.4-0.4-0.7-1-0.8-1.6c0-0.7,0.1-1.2,0.5-1.8C3.2,9.3,6.6,9.1,8.9,9.1z"/><path fill="currentColor" class="st0" d="M7.5,2.1c0.2,0,0.3,0.2,0.5,0.3c0.4,0.3,0.8,0.4,1.3,0.5c1.7,0.3,3.5,1.1,4.6,2.6c0.3,0.5,0.6,1.1,0.7,1.7 c0,0.1,0,0.2,0.1,0.2c0.1,0.4,0.1,0.7,0.1,1.1c0,0.1,0,0.1,0,0.2c0,0.8,0,0.8-0.2,1c-0.2,0.1-0.3,0.1-0.5,0.1 c-0.1-0.1-0.1-0.1-0.3-0.1c-0.7-0.4-1.5-0.6-2.2-0.9C10.8,8.5,10,8.2,9.3,7.8c0,0-0.1,0-0.1,0C8.2,7.2,7.3,6.4,6.9,5.2 c-0.3-0.9-0.4-2,0-2.9C7.1,2.1,7.2,2,7.5,2.1z"/><path fill="currentColor" class="st0" d="M22.2,8.1C22.6,8.5,22.9,9,23,9.6c0,0.6,0,1-0.4,1.4c-1.3,1.4-3.7,1.6-5.5,1.7c-0.8,0-1.6,0-2.3,0 c0,0-0.1,0-0.1,0c-0.4,0-0.7-0.1-1-0.4c-0.1-0.2,0-0.3,0-0.5c0.7-1.2,2.6-2.1,3.8-2.8c0,0,0.1,0,0.1-0.1C18.8,8.2,20.9,7.2,22.2,8.1 z"/></g></svg>